name Walk3.mot
datacolumns 19
datarows 22
range 2.42500000 2.53000000
endheader

                time	   L_ground_force_vx	   L_ground_force_vy	   L_ground_force_vz	   L_ground_force_px	   L_ground_force_py	   L_ground_force_pz	   R_ground_force_vx	   R_ground_force_vy	   R_ground_force_vz	   R_ground_force_px	   R_ground_force_py	   R_ground_force_pz	   L_ground_torque_x	   L_ground_torque_y	   L_ground_torque_z	   R_ground_torque_x	   R_ground_torque_y	   R_ground_torque_z	
          2.42500000	          0.00000000	          0.00000000	         -0.00000000	         -0.00000000	          0.00000000	         -0.00000000	         13.33525834	         45.67107573	         11.01014150	          0.38649867	          0.00000000	          0.14140047	          0.00000000	          0.00000000	          0.00000000	          0.00000000	         -2.55887314	          0.00000000	
          2.43000000	         -0.00000000	          0.00000000	         -0.00000000	         -0.00000000	          0.00000000	         -0.00000000	          9.12245434	         29.59291638	          8.92945396	          0.33381347	          0.00000000	          0.12187290	          0.00000000	          0.00000000	          0.00000000	          0.00000000	         -1.70102766	          0.00000000	
          2.43500000	         -0.00000000	         -0.00000000	         -0.00000000	         -0.00000000	          0.00000000	         -0.00000000	          5.71249882	         17.03932740	          6.91387615	          0.27590565	          0.00000000	          0.10055247	          0.00000000	          0.00000000	          0.00000000	          0.00000000	         -1.01721473	          0.00000000	
          2.44000000	         -0.00000000	         -0.00000000	         -0.00000000	         -0.00000000	          0.00000000	         -0.00000000	          3.07498170	          7.64984599	          5.07675752	          0.21717947	          0.00000000	          0.07901339	          0.00000000	          0.00000000	          0.00000000	          0.00000000	         -0.49829701	          0.00000000	
          2.44500000	         -0.00000000	         -0.00000000	         -0.00000000	         -0.00000000	          0.00000000	         -0.00000000	          1.14040039	          1.02355398	          3.49714170	          0.16234357	          0.00000000	          0.05895192	          0.00000000	          0.00000000	          0.00000000	          0.00000000	         -0.12611590	          0.00000000	
          2.45000000	         -0.00000000	         -0.00000000	          0.00000000	         -0.00000000	          0.00000000	         -0.00000000	         -0.19040101	         -3.30670946	          2.20758306	          0.11433896	          0.00000000	          0.04142450	          0.00000000	          0.00000000	          0.00000000	          0.00000000	          0.12253088	          0.00000000	
          2.45500000	         -0.00000000	         -0.00000000	          0.00000000	          0.00000000	          0.00000000	          0.00000000	         -1.02875975	         -5.82210279	          1.20602095	          0.07451170	          0.00000000	          0.02690833	          0.00000000	          0.00000000	          0.00000000	          0.00000000	          0.27229253	          0.00000000	
          2.46000000	         -0.00000000	         -0.00000000	          0.00000000	          0.00000000	          0.00000000	          0.00000000	         -1.48502051	         -6.97471786	          0.46835690	          0.04307828	          0.00000000	          0.01547127	          0.00000000	          0.00000000	          0.00000000	          0.00000000	          0.34679673	          0.00000000	
          2.46500000	         -0.00000000	         -0.00000000	          0.00000000	          0.00000000	          0.00000000	          0.00000000	         -1.66016453	         -7.16225174	         -0.04173413	          0.01951366	          0.00000000	          0.00691331	          0.00000000	          0.00000000	          0.00000000	          0.00000000	          0.36714740	          0.00000000	
          2.47000000	         -0.00000000	         -0.00000000	          0.00000000	          0.00000000	          0.00000000	          0.00000000	         -1.64118206	         -6.71606606	         -0.36554496	          0.00285883	          0.00000000	          0.00087850	          0.00000000	         -0.00000000	          0.00000000	          0.00000000	          0.35116097	          0.00000000	
          2.47500000	         -0.00000000	         -0.00000000	          0.00000000	          0.00000000	          0.00000000	          0.00000000	         -1.49921131	         -5.89877621	         -0.54428839	         -0.00804768	          0.00000000	         -0.00306098	          0.00000000	         -0.00000000	          0.00000000	          0.00000000	          0.31313660	          0.00000000	
          2.48000000	         -0.00000000	         -0.00000000	          0.00000000	          0.00000000	          0.00000000	          0.00000000	         -1.28959873	         -4.90814219	         -0.61586646	         -0.01440535	          0.00000000	         -0.00534521	          0.00000000	         -0.00000000	          0.00000000	          0.00000000	          0.26398698	          0.00000000	
          2.48500000	         -0.00000000	         -0.00000000	          0.00000000	          0.00000000	          0.00000000	          0.00000000	         -1.05318658	         -3.88469308	         -0.61306050	         -0.01734310	          0.00000000	         -0.00638730	          0.00000000	         -0.00000000	          0.00000000	          0.00000000	          0.21159011	          0.00000000	
          2.49000000	         -0.00000000	         -0.00000000	          0.00000000	          0.00000000	          0.00000000	          0.00000000	         -0.81828572	         -2.92114274	         -0.56277541	         -0.01785540	          0.00000000	         -0.00655042	          0.00000000	         -0.00000000	          0.00000000	          0.00000000	          0.16125479	          0.00000000	
          2.49500000	         -0.00000000	         -0.00000000	          0.00000000	          0.00000000	          0.00000000	          0.00000000	         -0.60293185	         -2.07220950	         -0.48601983	         -0.01677178	          0.00000000	         -0.00613696	          0.00000000	         -0.00000000	          0.00000000	          0.00000000	          0.11622242	          0.00000000	
          2.50000000	          0.00000000	         -0.00000000	          0.00000000	          0.00000000	          0.00000000	          0.00000000	         -0.41714496	         -1.36391835	         -0.39835968	         -0.01475043	          0.00000000	         -0.00538646	          0.00000000	         -0.00000000	          0.00000000	          0.00000000	          0.07815225	          0.00000000	
          2.50500000	          0.00000000	          0.00000000	          0.00000000	          0.00000000	          0.00000000	          0.00000000	         -0.26501230	         -0.80183550	         -0.31063948	         -0.01228760	          0.00000000	         -0.00447917	          0.00000000	         -0.00000000	          0.00000000	          0.00000000	          0.04755768	          0.00000000	
          2.51000000	          0.00000000	          0.00000000	          0.00000000	          0.00000000	          0.00000000	          0.00000000	         -0.14649331	         -0.37796717	         -0.22981839	         -0.00973643	          0.00000000	         -0.00354310	          0.00000000	         -0.00000000	          0.00000000	          0.00000000	          0.02417675	          0.00000000	
          2.51500000	          0.00000000	          0.00000000	          0.00000000	          0.00000000	          0.00000000	          0.00000000	         -0.05890353	         -0.07625598	         -0.15981354	         -0.00733038	          0.00000000	         -0.00266260	          0.00000000	         -0.00000000	          0.00000000	          0.00000000	          0.00727092	          0.00000000	
          2.52000000	          0.00000000	          0.00000000	          0.00000000	          0.00000000	          0.00000000	          0.00000000	          0.00192466	          0.12325648	         -0.10228146	         -0.00520769	          0.00000000	         -0.00188737	          0.00000000	         -0.00000000	          0.00000000	          0.00000000	         -0.00414551	          0.00000000	
          2.52500000	          0.00000000	          0.00000000	         -0.00000000	         -0.00000000	          0.00000000	         -0.00000000	          0.04078038	          0.24145186	         -0.05729803	         -0.00343458	          0.00000000	         -0.00124096	          0.00000000	         -0.00000000	          0.00000000	          0.00000000	         -0.01113878	          0.00000000	
          2.53000000	          0.00000000	          0.00000000	         -0.00000000	         -0.00000000	          0.00000000	         -0.00000000	          0.06247257	          0.29815235	         -0.02391944	         -0.00202588	          0.00000000	         -0.00072829	          0.00000000	         -0.00000000	          0.00000000	          0.00000000	         -0.01474249	          0.00000000	
